<svg xmlns="http://www.w3.org/2000/svg" width="800" height="600" viewBox="0 0 800 600">
  <!-- Background -->
  <defs>
    <linearGradient id="bgGradient" x1="0%" y1="0%" x2="100%" y2="100%">
      <stop offset="0%" style="stop-color:#667eea;stop-opacity:1" />
      <stop offset="100%" style="stop-color:#764ba2;stop-opacity:1" />
    </linearGradient>
  </defs>
  <rect width="800" height="600" fill="url(#bgGradient)"/>

  <!-- Content Area -->
  <rect x="50" y="50" width="700" height="500" fill="white" rx="10"/>

  <!-- Header Bar -->
  <rect x="50" y="50" width="700" height="80" fill="#f5f5f5" rx="10"/>

  <!-- Title -->
  <text x="100" y="110" font-family="Arial, sans-serif" font-size="32" font-weight="bold" fill="#333">
    Activity Feed Sample
  </text>

  <!-- Subtitle -->
  <text x="100" y="410" font-family="Arial, sans-serif" font-size="18" fill="#666">
    Daily Updates & Project Highlights
  </text>

  <!-- Icon Circle -->
  <circle cx="680" cy="120" r="40" fill="#667eea" opacity="0.1"/>
  <text x="670" y="135" font-family="Arial, sans-serif" font-size="40" fill="#667eea">📱</text>

  <!-- Sample Content Lines -->
  <rect x="100" y="190" width="600" height="8" fill="#e0e0e0" rx="4"/>
  <rect x="100" y="210" width="550" height="8" fill="#e0e0e0" rx="4"/>
  <rect x="100" y="230" width="580" height="8" fill="#e0e0e0" rx="4"/>
  <rect x="100" y="250" width="520" height="8" fill="#e0e0e0" rx="4"/>

  <!-- Image Placeholder -->
  <rect x="100" y="280" width="600" height="100" fill="#f0f0f0" stroke="#ddd" stroke-width="2" rx="5"/>
  <text x="400" y="335" font-family="Arial, sans-serif" font-size="16" fill="#999" text-anchor="middle">
    [Image Placeholder]
  </text>

  <!-- Footer -->
  <text x="100" y="430" font-family="Arial, sans-serif" font-size="12" fill="#999">
    Posted on November 4, 2025 • Category: Daily
  </text>

  <!-- Decorative Elements -->
  <circle cx="100" cy="100" r="3" fill="#667eea" opacity="0.3"/>
  <circle cx="120" cy="110" r="2" fill="#667eea" opacity="0.4"/>
  <circle cx="140" cy="105" r="3" fill="#667eea" opacity="0.2"/>
</svg>
